<?xml version="1.0"?>
<svg xmlns="http://www.w3.org/2000/svg" xmlns:xlink="http://www.w3.org/1999/xlink" version="1.1" id="Layer_1" x="0px" y="0px" viewBox="0 0 509.287 509.287" style="enable-background:new 0 0 509.287 509.287;" xml:space="preserve" width="512px" height="512px" class=""><g><circle style="fill:#6ACC5D" cx="254.644" cy="254.644" r="254.644" data-original="#FF553E" class="active-path" data-old_color="#6BCD5E"/><polygon style="fill:#FCFCFD;" points="320.085,56.286 107.486,56.286 107.486,453.001 401.801,453.001 401.801,138.003 " data-original="#FCFCFD" class=""/><polygon style="fill:#DEDEDF;" points="320.085,138.003 401.801,138.003 320.085,56.286 " data-original="#DEDEDF"/><rect x="150.209" y="105.113" style="fill:#71D456;" width="130.204" height="32.89" data-original="#71D456"/><g>
	<rect x="150.209" y="168.519" style="fill:#F1F3F7;" width="208.53" height="12.546" data-original="#F1F3F7"/>
	<rect x="150.209" y="202.766" style="fill:#F1F3F7;" width="130.204" height="12.546" data-original="#F1F3F7"/>
	<rect x="150.209" y="250.914" style="fill:#F1F3F7;" width="208.53" height="159.025" data-original="#F1F3F7"/>
</g><polygon style="fill:#6EB1E1;" points="342.803,394.342 166.485,394.342 166.485,266.511 178.013,266.511 178.013,382.813   342.803,382.813 " data-original="#6EB1E1"/><rect x="191.237" y="349.245" style="fill:#71D456;" width="18.31" height="24.413" data-original="#71D456"/><rect x="224.466" y="320.085" style="fill:#646B79;" width="18.31" height="53.574" data-original="#646B79"/><rect x="257.695" y="291.264" style="fill:#F8B517;" width="18.31" height="82.395" data-original="#F8B517"/><rect x="290.924" y="332.97" style="fill:#886C60;" width="18.31" height="40.689" data-original="#886C60"/><rect x="324.154" y="266.511" style="fill:#00FF59" width="18.31" height="107.147" data-original="#F0582F" class="" data-old_color="#F0582F"/></g> </svg>
